<?xml version="1.0" encoding="iso-8859-1"?>
<!-- Generator: Adobe Illustrator 30.2.1, SVG Export Plug-In . SVG Version: 9.03 Build 0)  -->
<svg version="1.1" id="Layer_1" xmlns="http://www.w3.org/2000/svg" xmlns:xlink="http://www.w3.org/1999/xlink" x="0px" y="0px"
	 viewBox="0 0 681.022 1080" style="enable-background:new 0 0 681.022 1080;" xml:space="preserve">
<g>
	<g>
		<g>
			<g>
				<g>
					<g>
						<path style="fill:#421A31;" d="M451.545,827.944L52.567,428.966c-48.852-48.852-48.852-128.057,0-176.91l0,0
							c48.852-48.852,128.057-48.852,176.91,0l398.979,398.979c48.852,48.852,48.852,128.057,0,176.91l0,0
							C579.603,876.796,500.397,876.796,451.545,827.944z"/>
						<path style="fill:#421A31;" d="M236.129,1043.361L36.639,843.871c-48.852-48.852-48.852-128.057,0-176.91l0,0
							c48.852-48.852,128.057-48.852,176.91,0l287.944,287.944l-88.455,88.455C364.186,1092.213,284.981,1092.213,236.129,1043.361z
							"/>
						<path style="fill:#421A31;" d="M444.893,36.639l199.489,199.489c48.852,48.852,48.852,128.057,0,176.91l0,0
							c-48.852,48.852-128.057,48.852-176.91,0L179.528,125.094l88.455-88.455C316.836-12.213,396.041-12.213,444.893,36.639z"/>
					</g>
				</g>
			</g>
		</g>
	</g>
</g>
</svg>
