<?xml version="1.0" encoding="iso-8859-1"?>
<!-- Generator: Adobe Illustrator 30.2.1, SVG Export Plug-In . SVG Version: 9.03 Build 0)  -->
<svg version="1.1" id="Layer_1" xmlns="http://www.w3.org/2000/svg" xmlns:xlink="http://www.w3.org/1999/xlink" x="0px" y="0px"
	 viewBox="0 0 1651.055 966.112" style="enable-background:new 0 0 1651.055 966.112;" xml:space="preserve">
<g>
	<g id="XMLID_00000099637191857612280500000008205280003242689460_">
		<g>
			<g>
				<g>
					<path style="fill:#421A31;" d="M240.841,547.117c0,13.327-1.535,29.208-14.346,29.208c-11.276,0-14.862-12.295-23.584-25.106
						c-12.798-18.965-34.33-52.779-76.853-52.779c-41.516,0-64.055,29.208-64.055,57.385c0,93.263,193.184,49.193,193.184,175.767
						c0,52.263-44.071,117.853-138.869,117.853c-45.606,0-91.212-14.862-105.558-40.484c-6.154-10.76-8.708-22.539-9.224-33.814
						S0,755.679,0,746.455c0-10.257,6.141-14.862,12.811-14.862c13.327,0,15.365,15.365,34.846,40.484
						c15.881,20.487,42.019,48.677,83.523,48.677c52.263,0,77.369-35.362,77.369-67.641c0-102.488-193.184-53.798-193.184-176.27
						c0-55.346,48.173-105.055,126.058-105.055c35.878,0,70.712,10.257,85.574,26.654
						C237.254,509.717,240.841,530.72,240.841,547.117z"/>
					<path style="fill:#421A31;" d="M540.589,708.525c0,76.866-53.798,140.921-130.148,140.921
						c-77.898,0-130.677-53.798-130.677-137.321c0-77.382,54.314-141.437,132.212-141.437
						C493.448,570.688,540.589,631.156,540.589,708.525z M404.803,596.31c-45.103,0-72.763,39.968-72.763,96.85
						c0,70.712,33.298,129.645,83.523,129.645c50.728,0,72.763-49.193,72.763-99.417C488.326,664.467,462.188,596.31,404.803,596.31
						z"/>
					<path style="fill:#421A31;" d="M902.831,806.407c9.224,17.933,26.138,16.901,26.138,27.673c0,7.173-6.657,9.728-14.346,9.728
						h-85.574c-7.689,0-13.83-2.554-13.83-9.728c0-10.773,17.933-11.276,26.125-27.673c5.122-10.256,6.154-27.157,6.154-52.276
						v-91.199c0-22.035,0-33.827-5.122-42.019c-3.083-5.135-9.224-8.205-16.914-10.773c-7.173-2.554-12.295-5.122-12.295-10.244
						c0-5.122,2.051-9.224,14.346-11.779c18.952-4.103,33.311-8.205,48.677-14.862c3.587-1.535,6.657-2.567,9.74-2.567
						c6.141,0,10.76,4.103,10.76,13.327v170.116C896.69,779.753,897.709,796.151,902.831,806.407z M903.296,495.763
						c0,17.743-14.384,32.127-32.127,32.127c-17.743,0-32.127-14.384-32.127-32.127c0-17.743,14.384-32.127,32.127-32.127
						C888.912,463.637,903.296,478.02,903.296,495.763z"/>
					<path style="fill:#421A31;" d="M1184.659,788.474c0,14.346-38.949,60.971-107.094,60.971
						c-78.401,0-124.523-61.487-124.523-131.696c0-74.814,53.295-147.062,132.715-147.062c73.795,0,104.539,59.952,104.539,95.831
						c0,31.247-15.378,35.866-40.484,36.382c0,0-135.283,0-138.869,0s-5.625,1.535-5.625,5.122v2.554
						c0,53.811,30.744,101.972,85.058,101.972c50.212,0,70.712-34.833,83.007-34.833
						C1179.537,777.715,1184.659,781.301,1184.659,788.474z M1007.357,674.195c0,2.567,1.032,3.083,4.103,3.083
						c3.587,0,83.523,0,83.523,0c29.724,0,43.052-6.154,43.052-29.724s-20.5-51.76-56.882-51.76c-41,0-67.125,34.846-73.279,72.763
						C1007.357,672.66,1007.357,673.692,1007.357,674.195z"/>
					<path style="fill:#421A31;" d="M781.404,778.734c-11.779,0-29.209,34.33-74.814,34.33c-58.417,0-84.542-54.314-84.542-110.681
						c0-65.074,33.814-104.023,73.783-104.023c0.066,0,0.131,0,0.197,0c8.636,0.03,15.067,7.507,15.159,16.142
						c0.028,2.692,0.368,5.459,1.064,8.277c3.592,14.542,16.331,25.522,31.247,26.897c21.24,1.957,39.087-14.71,39.087-35.543
						c0-1.382-0.097-2.74-0.25-4.081c-0.081-0.754-0.214-1.488-0.34-2.226c-0.085-0.474-0.168-0.949-0.271-1.416
						c-0.208-0.975-0.452-1.936-0.741-2.88c-0.005-0.015-0.01-0.03-0.015-0.044c-0.912-2.967-2.226-5.773-3.931-8.408
						c-0.374-0.592-0.764-1.17-1.171-1.737c-0.279-0.378-0.55-0.76-0.846-1.131c-1.829-2.344-3.94-4.447-6.29-6.27
						c-0.312-0.25-0.653-0.484-0.976-0.729c-0.439-0.317-0.874-0.636-1.328-0.935c-12.124-8.563-30.934-13.588-56.249-13.588
						c-85.574,0-139.372,75.847-139.372,155.267c0,76.866,51.76,123.492,116.834,123.492c67.641,0,102.991-47.141,102.991-60.971
						C790.629,783.34,787.042,778.734,781.404,778.734z"/>
					<path style="fill:#421A31;" d="M1635.161,578.259h-71.228c-9.224,0-15.366,3.07-15.366,9.74
						c0,13.831,25.106,8.709,25.106,36.382c0,13.315-6.657,31.763-18.965,63.539l-36.382,92.231
						c-1.019,2.567-1.535,3.083-2.554,3.083c-1.032,0-1.032-0.516-2.051-3.083l-52.779-130.664
						c-6.154-14.862-8.205-25.106-8.205-31.776c0-20.487,24.087-17.932,24.087-30.228c0-5.638-5.122-9.224-13.327-9.224
						c0,0-150.358,0.449-154.811,0.449c-9.224,0-11.276-2.567-11.276-11.791v-44.507c0-3.587-2.051-5.638-6.141-5.638h-21.016
						c-4.103,0-5.638,2.051-6.657,6.141c-3.587,16.914-5.638,30.757-11.792,41c-6.141,10.244-17.417,17.417-39.968,23.571
						c-3.587,1.02-5.122,3.071-5.122,6.154v12.029c0,4.09,2.051,4.279,5.638,4.279h32.279c2.82,0,5.122,2.279,5.122,5.099
						c0.001,50.744-3.586,103.097-3.586,148.207c0,26.125,4.102,47.141,14.346,60.971c12.308,16.914,30.757,27.158,55.863,27.158
						c24.087,0,44.574-9.741,58.417-22.035c10.729-9.199,18.405-20.937,18.448-28.628c0.009-1.64-0.644-3.243-1.722-4.479
						c-13.452-15.432-20.378,15.69-53.625,15.69c-19.984,0-36.897-11.276-40.484-51.76c-2.051-23.571-2.051-40.485-2.051-59.437
						c0-15.378,1.535-77.975,1.535-84.632c0-4.103,2.051-6.154,6.154-6.154c5.734,0,48.215,0,68.241,0.125
						c14.769,0.092,24.299,5.971,29.842,19.661c1.963,4.849,84.399,215.5,84.402,215.507c0.516,1.536,1.032,3.07,1.032,4.606
						c0,1.536-0.575,3.043-1.535,5.122c-18.204,39.411-45.598,74.571-59.89,78.432c-5.82,1.572-11.091-3.513-10.394-9.502
						c0.311-2.67,0.29-5.442-0.113-8.278c-2.022-14.235-13.74-25.683-28.026-27.305c-18.719-2.125-34.635,11.864-35.765,29.865
						c-0.012,0.2-0.07,0.389-0.07,0.592c0,0.153,0.016,0.299,0.018,0.452c-0.01,0.332-0.05,0.655-0.05,0.989
						c0,2.027,0.21,4.003,0.569,5.926c2.711,19.213,15.956,33.181,34.922,37.593c39.658,9.227,85.664-3.216,139.273-130.282
						c17.946-42.536,57.914-141.424,70.725-171.149c8.192-18.965,16.398-36.897,26.641-48.677
						c13.327-15.378,28.189-14.862,28.189-26.138C1651.055,580.826,1645.417,578.259,1635.161,578.259z"/>
				</g>
				<g>
					<path style="fill:#421A31;" d="M1034.197,376.124c0,6.154-3.436,10.755-13.843,11.779c-19.999,1.968-51.244,0-53.812,0
						c-7.173,0-11.276-4.103-11.276-13.83c0,0,0-30.241,0-31.776c0-1.019-0.503-1.535-1.535-1.535c-1.019,0-1.535,1.019-2.554,2.567
						c-16.914,26.125-47.154,44.574-83.02,44.574c-25.622,0-48.16-9.224-64.055-28.692c-14.346-17.43-18.952-41.503-18.952-72.247
						v-86.09c0-22.035,0-33.827-5.122-41.503c-8.205-12.811-29.208-9.224-29.208-22.551c0-5.122,3.587-8.708,13.83-10.76
						c20.5-4.619,32.279-8.205,46.122-13.843c5.122-2.038,7.676-3.071,11.779-3.071c6.67,0,11.276,4.103,11.276,13.327v163.459
						c0,35.362,16.398,63.036,53.295,63.036c14.862,0,30.744-5.135,43.039-17.43c18.965-18.965,25.106-47.657,25.106-126.058
						c0-24.59,0-38.433-5.122-46.109c-8.708-12.811-29.208-9.224-29.208-21.532c0-5.638,2.567-9.224,13.843-11.779
						c19.984-4.619,34.33-8.708,48.16-14.862c3.587-1.535,6.657-2.567,9.74-2.567c6.657,0,11.276,4.619,11.276,13.843v190.616
						c0,22.035,0,33.827,5.122,42.019C1016.251,366.383,1034.197,364.332,1034.197,376.124z"/>
					<path style="fill:#421A31;" d="M1193.477,387.903c-49.709,0-67.641-25.106-79.433-25.106
						c-14.849,0-11.779,25.106-26.641,25.106c-7.173,0-11.276-5.638-11.276-18.449V82.504c0-16.914,0-23.571-4.606-31.776
						c-8.708-14.346-29.724-10.76-29.724-22.539c0-5.135,2.567-8.721,14.346-11.276c18.965-4.103,31.776-8.205,46.122-13.843
						C1107.387,1.019,1110.457,0,1114.56,0c6.154,0,10.256,3.587,10.256,12.811v137.837c0,2.567,1.019,4.103,2.554,4.103
						s2.567-1.019,5.122-4.103c20.5-23.055,49.709-41.503,83.523-41.503c62.52,0,105.055,52.779,105.055,126.058
						C1321.071,307.45,1277,387.903,1193.477,387.903z M1198.083,362.281c53.811,0,72.26-58.417,72.26-108.629
						c0-58.417-27.157-107.609-74.311-107.609c-53.282,0-71.215,53.798-71.215,105.558
						C1124.816,322.312,1155.044,362.281,1198.083,362.281z"/>
					<path style="fill:#421A31;" d="M725.413,147.493c0.096-0.926,0.161-1.863,0.161-2.819c0-0.064-0.009-0.127-0.009-0.192
						c0-0.061,0.009-0.121,0.009-0.183c0-2.889-0.417-5.675-1.132-8.338c-3.691-14.532-16.45-26.817-35.085-26.817
						c-32.795,0-67.939,18.736-84.713,54.314c-0.516,1.033-1.032,2.567-2.051,2.567c-1.032,0-1.032-1.032-1.032-2.05v-40.484
						c0-9.225-4.09-14.347-11.779-14.347c-3.587,0-7.689,1.033-12.295,3.07c-14.862,6.671-25.119,10.257-42.019,13.844
						c-10.773,2.051-13.843,5.638-13.843,11.275c0,11.264,19.984,9.224,29.208,22.539c4.619,6.67,6.657,18.965,6.657,41v91.715
						c0,25.118-1.535,41.516-5.625,51.243c-8.205,18.449-26.654,17.933-26.654,28.706c0,7.173,6.154,9.727,14.346,9.727h84.555
						c8.192,0,14.346-2.554,14.346-9.727c0-11.276-16.913-9.225-26.138-27.673c-5.122-10.257-6.141-27.158-6.141-52.276
						c0-76.35,8.644-100.467,21.003-118.873c6.588-9.811,14.705-18.042,23.298-23.842c4.514-3.047,10.834-0.845,12.253,4.412
						c2.565,9.5,9.893,22.125,30.73,22.125c15.869,0,29.016-11.522,31.612-26.651c0.123-0.633,0.218-1.277,0.294-1.929
						C725.383,147.718,725.402,147.606,725.413,147.493z"/>
					<path style="fill:#421A31;" d="M489.861,317.191c-11.779,0-29.209,34.33-74.814,34.33c-58.417,0-84.542-54.314-84.542-110.681
						c0-65.074,33.814-104.023,73.783-104.023c0.066,0,0.131,0,0.197,0c8.636,0.03,15.067,7.507,15.159,16.142
						c0.028,2.692,0.368,5.459,1.064,8.277c3.592,14.542,16.331,25.522,31.247,26.897c21.24,1.957,39.087-14.71,39.087-35.543
						c0-1.382-0.097-2.74-0.25-4.081c-0.081-0.754-0.214-1.488-0.34-2.226c-0.085-0.474-0.168-0.949-0.271-1.416
						c-0.208-0.975-0.452-1.936-0.741-2.88c-0.005-0.015-0.01-0.03-0.015-0.044c-0.912-2.967-2.225-5.773-3.931-8.408
						c-0.374-0.592-0.764-1.17-1.171-1.737c-0.279-0.378-0.55-0.76-0.846-1.131c-1.829-2.344-3.94-4.447-6.29-6.27
						c-0.312-0.25-0.653-0.484-0.976-0.729c-0.439-0.317-0.874-0.636-1.328-0.935c-12.124-8.563-30.934-13.588-56.249-13.588
						c-85.574,0-139.372,75.847-139.372,155.267c0,76.866,51.76,123.492,116.834,123.492c67.641,0,102.991-47.141,102.991-60.971
						C499.086,321.796,495.499,317.191,489.861,317.191z"/>
					<g>
						<path style="fill:#421A31;" d="M240.841,85.574c0,13.327-1.535,29.208-14.346,29.208c-11.276,0-14.862-12.295-23.571-25.106
							c-12.811-18.965-34.33-52.779-76.866-52.779c-41.503,0-64.055,29.208-64.055,57.385c0,93.263,193.184,49.193,193.184,175.767
							c0,52.263-44.071,117.853-138.856,117.853c-45.606,0-91.212-14.862-105.571-40.484c-6.141-10.76-8.708-22.539-9.212-33.814
							C1.032,302.328,0,294.136,0,284.912c0-10.257,6.154-14.862,12.811-14.862c13.327,0,15.378,15.365,34.846,40.484
							c15.881,20.487,42.019,48.676,83.523,48.676c52.276,0,77.382-35.362,77.382-67.641c0-102.488-193.184-53.798-193.184-176.27
							c0-55.346,48.16-105.055,126.058-105.055c35.866,0,70.712,10.257,85.574,26.654C237.254,48.173,240.841,69.177,240.841,85.574
							z"/>
					</g>
				</g>
			</g>
		</g>
	</g>
</g>
</svg>
