<?xml version="1.0" encoding="UTF-8"?>
<svg id="Layer_2" data-name="Layer 2" xmlns="http://www.w3.org/2000/svg" viewBox="0 0 1080 211.19">
  <defs>
    <style>
      .cls-1 {
        fill: #82abf4;
      }

      .cls-2 {
        fill: #cedbfe;
      }
    </style>
  </defs>
  <g id="Layer_1-2" data-name="Layer 1">
    <g>
      <path class="cls-1" d="M105.59,0h868.81C1032.68,0,1080,47.32,1080,105.59h0c0,58.28-47.32,105.6-105.59,105.6H0v-105.6C0,47.32,47.32,0,105.59,0Z"/>
      <g>
        <path class="cls-2" d="M96.79,143.9v-78.35h10.61v78.35h-10.61ZM103.9,143.9v-9.26h23.71c4.52,0,8.05-1.33,10.61-4.01,2.56-2.67,3.84-5.89,3.84-9.65,0-2.56-.56-4.87-1.69-6.94-1.13-2.07-2.77-3.71-4.91-4.91-2.14-1.2-4.65-1.81-7.51-1.81h-24.05v-9.26h22.47c3.76,0,6.75-1,8.97-2.99,2.22-1.99,3.33-4.87,3.33-8.64s-1.17-6.64-3.5-8.64c-2.33-1.99-5.42-2.99-9.26-2.99h-22.01v-9.26h22.24c5.12,0,9.39.92,12.81,2.76,3.42,1.85,6.02,4.27,7.79,7.28,1.77,3.01,2.65,6.32,2.65,9.93,0,4.22-1.15,7.9-3.44,11.06-2.3,3.16-5.66,5.65-10.1,7.45l.9-3.39c5.04,1.81,8.97,4.53,11.8,8.18,2.82,3.65,4.23,7.96,4.23,12.93,0,4.14-1.02,7.87-3.05,11.18-2.03,3.31-4.95,5.97-8.75,7.96-3.8,2-8.45,2.99-13.94,2.99h-23.14Z"/>
        <path class="cls-2" d="M185.63,145.03c-5.35,0-10.16-1.22-14.45-3.67s-7.68-5.78-10.16-9.99c-2.48-4.21-3.72-8.99-3.72-14.34s1.22-10.01,3.67-14.23c2.45-4.21,5.76-7.54,9.93-9.99,4.18-2.45,8.86-3.67,14.06-3.67s9.35,1.13,13.15,3.39c3.8,2.26,6.77,5.38,8.92,9.37,2.15,3.99,3.22,8.51,3.22,13.55,0,.75-.04,1.56-.11,2.43-.08.87-.23,1.86-.45,2.99h-45.27v-8.47h39.85l-3.72,3.27c0-3.61-.64-6.68-1.92-9.2-1.28-2.52-3.09-4.48-5.42-5.87-2.33-1.39-5.16-2.09-8.47-2.09s-6.51.75-9.14,2.26c-2.64,1.51-4.67,3.61-6.1,6.32-1.43,2.71-2.14,5.91-2.14,9.59s.75,7.06,2.26,9.88c1.5,2.82,3.65,5,6.43,6.55,2.78,1.54,5.98,2.32,9.6,2.32,3.01,0,5.78-.53,8.3-1.58,2.52-1.06,4.68-2.64,6.49-4.74l6.55,6.66c-2.56,3.01-5.7,5.31-9.43,6.89-3.72,1.58-7.7,2.37-11.91,2.37Z"/>
        <path class="cls-2" d="M216.79,143.9V63.29h10.16v80.6h-10.16Z"/>
        <path class="cls-2" d="M261.83,145.03c-5.27,0-10.01-1.24-14.22-3.73-4.22-2.48-7.56-5.85-10.05-10.1-2.48-4.25-3.73-9.01-3.73-14.28s1.24-9.88,3.73-14.06c2.48-4.17,5.83-7.51,10.05-9.99,4.21-2.48,8.95-3.73,14.22-3.73s9.92,1.23,14.17,3.67c4.25,2.45,7.62,5.78,10.1,9.99,2.48,4.22,3.72,8.92,3.72,14.11s-1.24,10.03-3.72,14.28c-2.48,4.25-5.85,7.62-10.1,10.1-4.25,2.48-8.97,3.73-14.17,3.73ZM261.83,135.21c3.39,0,6.4-.79,9.03-2.37,2.63-1.58,4.7-3.74,6.21-6.49,1.5-2.75,2.26-5.89,2.26-9.43s-.77-6.55-2.31-9.26c-1.54-2.71-3.61-4.83-6.21-6.38-2.6-1.54-5.59-2.31-8.97-2.31s-6.4.77-9.03,2.31c-2.64,1.54-4.7,3.67-6.21,6.38-1.51,2.71-2.26,5.8-2.26,9.26s.75,6.68,2.26,9.43c1.51,2.75,3.57,4.91,6.21,6.49,2.63,1.58,5.65,2.37,9.03,2.37Z"/>
        <path class="cls-2" d="M296.71,143.9v-53.62h10.16v53.62h-10.16ZM334.65,143.9v-31.27c0-4.07-1.28-7.41-3.84-10.05-2.56-2.63-5.87-3.95-9.93-3.95-2.71,0-5.12.6-7.23,1.81-2.11,1.2-3.76,2.86-4.97,4.97-1.2,2.11-1.81,4.51-1.81,7.23l-4.18-2.37c0-4.06.9-7.68,2.71-10.84s4.33-5.66,7.56-7.51c3.24-1.84,6.89-2.77,10.95-2.77s7.66,1.02,10.78,3.05c3.12,2.03,5.59,4.68,7.39,7.96,1.81,3.27,2.71,6.76,2.71,10.44v33.3h-10.16Z"/>
        <path class="cls-2" d="M376.3,142.99c-4.89,0-9.28-1.17-13.15-3.5-3.88-2.33-6.94-5.55-9.2-9.65-2.26-4.1-3.39-8.71-3.39-13.83s1.13-9.69,3.39-13.72c2.26-4.03,5.32-7.23,9.2-9.59,3.88-2.37,8.26-3.56,13.15-3.56,4.21,0,7.94.83,11.18,2.49,3.24,1.66,5.81,3.97,7.73,6.94,1.92,2.98,2.95,6.45,3.1,10.44v14.23c-.23,3.91-1.3,7.36-3.22,10.33-1.92,2.98-4.5,5.29-7.73,6.94-3.24,1.66-6.93,2.48-11.06,2.48ZM376.3,167.49c-5.49,0-10.37-1.02-14.62-3.05-4.25-2.03-7.66-4.89-10.22-8.58l6.55-6.66c2.18,2.78,4.78,4.91,7.79,6.38,3.01,1.47,6.58,2.2,10.72,2.2,5.49,0,9.84-1.45,13.04-4.35,3.2-2.9,4.8-6.79,4.8-11.68v-13.32l1.81-12.08-1.81-11.97v-14.11h10.16v51.48c0,5.12-1.19,9.6-3.56,13.43-2.37,3.84-5.68,6.85-9.93,9.03-4.25,2.18-9.16,3.27-14.73,3.27ZM378.34,133.4c3.31,0,6.23-.72,8.75-2.15,2.52-1.43,4.46-3.44,5.81-6.04,1.35-2.6,2.03-5.63,2.03-9.09s-.7-6.49-2.09-9.09c-1.39-2.59-3.33-4.63-5.81-6.09-2.48-1.47-5.42-2.2-8.81-2.2s-6.36.73-8.92,2.2c-2.56,1.47-4.57,3.5-6.04,6.09-1.47,2.6-2.2,5.59-2.2,8.98s.73,6.4,2.2,9.03c1.47,2.64,3.5,4.68,6.1,6.15,2.6,1.47,5.59,2.2,8.97,2.2Z"/>
        <path class="cls-2" d="M435.68,143.9v-78.35h10.61v78.35h-10.61ZM442.91,75.26v-9.71h44.37v9.71h-44.37ZM442.91,108.45v-9.26h41.21v9.26h-41.21ZM442.91,143.9v-9.71h44.93v9.71h-44.93Z"/>
        <path class="cls-2" d="M514.37,143.9l-24.61-53.62h11.29l19.76,45.27h-6.55l19.87-45.27h10.84l-24.61,53.62h-5.98Z"/>
        <path class="cls-2" d="M571.95,145.03c-5.35,0-10.16-1.22-14.45-3.67-4.29-2.45-7.68-5.78-10.16-9.99-2.48-4.21-3.72-8.99-3.72-14.34s1.22-10.01,3.67-14.23c2.45-4.21,5.76-7.54,9.93-9.99,4.18-2.45,8.86-3.67,14.06-3.67s9.35,1.13,13.15,3.39c3.8,2.26,6.77,5.38,8.92,9.37,2.15,3.99,3.22,8.51,3.22,13.55,0,.75-.04,1.56-.11,2.43-.07.87-.23,1.86-.45,2.99h-45.27v-8.47h39.85l-3.73,3.27c0-3.61-.64-6.68-1.92-9.2-1.28-2.52-3.09-4.48-5.42-5.87-2.33-1.39-5.16-2.09-8.47-2.09s-6.51.75-9.14,2.26c-2.64,1.51-4.67,3.61-6.1,6.32-1.43,2.71-2.14,5.91-2.14,9.59s.75,7.06,2.26,9.88c1.5,2.82,3.65,5,6.43,6.55,2.78,1.54,5.98,2.32,9.6,2.32,3.01,0,5.78-.53,8.3-1.58,2.52-1.06,4.68-2.64,6.49-4.74l6.55,6.66c-2.56,3.01-5.7,5.31-9.43,6.89-3.73,1.58-7.7,2.37-11.91,2.37Z"/>
        <path class="cls-2" d="M603.1,143.9v-53.62h10.16v53.62h-10.16ZM613.26,113.3l-3.84-1.69c0-6.85,1.58-12.31,4.74-16.37,3.16-4.06,7.71-6.1,13.66-6.1,2.71,0,5.15.47,7.34,1.41,2.18.94,4.21,2.5,6.1,4.68l-6.66,6.89c-1.13-1.2-2.37-2.07-3.72-2.6-1.36-.53-2.94-.79-4.74-.79-3.77,0-6.85,1.2-9.26,3.61-2.41,2.41-3.61,6.06-3.61,10.95Z"/>
        <path class="cls-2" d="M660.57,144.35l-23.26-54.07h11.29l17.27,42.33h-3.61l18.18-42.33h11.29l-25.06,54.07h-6.1ZM645.21,166.36l15.8-32.4,5.65,10.39-10.16,22.02h-11.29Z"/>
        <path class="cls-2" d="M708.66,143.9l-21.22-53.62h10.61l15.35,41.77h-3.39l15.24-41.77h5.87l15.24,41.77h-3.39l15.35-41.77h10.61l-21.11,53.62h-5.98l-15.47-40.53h3.73l-15.58,40.53h-5.87Z"/>
        <path class="cls-2" d="M773.46,143.9V63.29h10.16v80.6h-10.16ZM811.39,143.9v-31.27c0-4.07-1.28-7.41-3.84-10.05-2.56-2.63-5.87-3.95-9.93-3.95-2.71,0-5.12.6-7.22,1.81-2.11,1.2-3.76,2.86-4.97,4.97-1.2,2.11-1.81,4.51-1.81,7.23l-4.18-2.37c0-4.06.9-7.68,2.71-10.84,1.81-3.16,4.33-5.66,7.56-7.51,3.24-1.84,6.89-2.77,10.95-2.77s7.66.91,10.78,2.71c3.12,1.81,5.59,4.33,7.39,7.56s2.71,6.96,2.71,11.18v33.3h-10.16Z"/>
        <path class="cls-2" d="M855.64,145.03c-5.35,0-10.16-1.22-14.45-3.67-4.29-2.45-7.68-5.78-10.16-9.99-2.48-4.21-3.72-8.99-3.72-14.34s1.22-10.01,3.67-14.23c2.45-4.21,5.76-7.54,9.93-9.99,4.18-2.45,8.86-3.67,14.06-3.67s9.35,1.13,13.15,3.39c3.8,2.26,6.77,5.38,8.92,9.37,2.15,3.99,3.22,8.51,3.22,13.55,0,.75-.04,1.56-.11,2.43-.07.87-.23,1.86-.45,2.99h-45.27v-8.47h39.85l-3.73,3.27c0-3.61-.64-6.68-1.92-9.2-1.28-2.52-3.09-4.48-5.42-5.87-2.33-1.39-5.16-2.09-8.47-2.09s-6.51.75-9.14,2.26c-2.64,1.51-4.67,3.61-6.1,6.32-1.43,2.71-2.14,5.91-2.14,9.59s.75,7.06,2.26,9.88c1.5,2.82,3.65,5,6.43,6.55,2.78,1.54,5.98,2.32,9.6,2.32,3.01,0,5.78-.53,8.3-1.58,2.52-1.06,4.68-2.64,6.49-4.74l6.55,6.66c-2.56,3.01-5.7,5.31-9.43,6.89-3.73,1.58-7.7,2.37-11.91,2.37Z"/>
        <path class="cls-2" d="M886.8,143.9v-53.62h10.16v53.62h-10.16ZM896.96,113.3l-3.84-1.69c0-6.85,1.58-12.31,4.74-16.37,3.16-4.06,7.71-6.1,13.66-6.1,2.71,0,5.15.47,7.34,1.41,2.18.94,4.21,2.5,6.1,4.68l-6.66,6.89c-1.13-1.2-2.37-2.07-3.73-2.6-1.35-.53-2.93-.79-4.74-.79-3.76,0-6.85,1.2-9.26,3.61s-3.61,6.06-3.61,10.95Z"/>
        <path class="cls-2" d="M950.7,145.03c-5.34,0-10.16-1.22-14.45-3.67s-7.68-5.78-10.16-9.99c-2.48-4.21-3.73-8.99-3.73-14.34s1.22-10.01,3.67-14.23c2.45-4.21,5.76-7.54,9.93-9.99,4.18-2.45,8.86-3.67,14.06-3.67s9.35,1.13,13.15,3.39c3.8,2.26,6.77,5.38,8.92,9.37,2.14,3.99,3.22,8.51,3.22,13.55,0,.75-.04,1.56-.11,2.43-.08.87-.23,1.86-.45,2.99h-45.27v-8.47h39.85l-3.72,3.27c0-3.61-.64-6.68-1.92-9.2s-3.09-4.48-5.42-5.87c-2.33-1.39-5.16-2.09-8.47-2.09s-6.51.75-9.14,2.26c-2.64,1.51-4.67,3.61-6.1,6.32-1.43,2.71-2.15,5.91-2.15,9.59s.75,7.06,2.26,9.88c1.51,2.82,3.65,5,6.43,6.55,2.78,1.54,5.98,2.32,9.6,2.32,3.01,0,5.78-.53,8.3-1.58,2.52-1.06,4.68-2.64,6.49-4.74l6.55,6.66c-2.56,3.01-5.7,5.31-9.43,6.89-3.73,1.58-7.7,2.37-11.91,2.37Z"/>
      </g>
    </g>
  </g>
</svg>